<?xml version="1.0" encoding="UTF-8"?>
<svg version="1.1" xmlns="http://www.w3.org/2000/svg" width="231" height="263">
<path d="M0 0 C0.82556396 0.00757324 1.65112793 0.01514648 2.50170898 0.02294922 C18.217954 0.4418045 30.43310942 7.11565484 41.1953125 18.3046875 C50.61780435 29.25439364 53.44908093 42.35601264 52.75 56.4375 C52.25 60.1875 52.25 60.1875 51.75 62.4375 C53.3847133 57.42437921 54.11463389 52.73571158 54.50390625 47.4765625 C54.75 45.4375 54.75 45.4375 55.75 44.4375 C64.89602951 43.33054008 71.53558574 45.9853817 78.875 51.25 C80.18000434 52.29607491 81.47203317 53.35856079 82.75 54.4375 C83.3584375 54.92734375 83.966875 55.4171875 84.59375 55.921875 C93.30855655 63.64288782 97.38843754 76.13914995 98.75 87.4375 C99.24555286 106.41304479 93.36981964 127.09426886 80.75 141.4375 C80.20601562 142.12328125 79.66203125 142.8090625 79.1015625 143.515625 C67.42850076 157.87403897 48.63467134 165.43993923 30.75 168.4375 C26.40456154 168.86100463 22.10061348 168.78898583 17.75 168.4375 C18.09740339 160.58618332 20.03451906 153.78824375 22.75 146.4375 C13.43205103 161.75871254 13.11867778 180.29690653 16.75 197.4375 C20.23145009 209.09050466 25.27493796 217.80836914 34.6015625 225.61328125 C36.76991062 227.45440592 38.76428956 229.40237143 40.75 231.4375 C30.32023596 237.39736517 17.61299236 240.55720642 5.6171875 240.5703125 C4.48152344 240.57160156 3.34585938 240.57289063 2.17578125 240.57421875 C1.00402344 240.57035156 -0.16773438 240.56648437 -1.375 240.5625 C-3.14423828 240.56830078 -3.14423828 240.56830078 -4.94921875 240.57421875 C-6.08230469 240.57292969 -7.21539062 240.57164062 -8.3828125 240.5703125 C-9.41293457 240.56918457 -10.44305664 240.56805664 -11.50439453 240.56689453 C-13.92099687 240.45300522 -15.94327414 240.13193137 -18.25 239.4375 C-16.79910795 235.24603409 -14.69157809 232.11922182 -12.0625 228.5625 C-3.10282079 215.99390991 3.0855853 202.14656175 2.6875 186.5 C2.29429196 170.85925649 4.9010774 153.37131486 15.75 141.4375 C16.19859375 140.91430176 16.6471875 140.39110352 17.109375 139.85205078 C19.11299539 138.12452451 20.26256085 137.96632822 22.875 137.7421875 C23.66390625 137.66613281 24.4528125 137.59007812 25.265625 137.51171875 C26.08546875 137.44597656 26.9053125 137.38023437 27.75 137.3125 C29.37525138 137.16684068 31.00026619 137.01851075 32.625 136.8671875 C33.34429687 136.80772949 34.06359375 136.74827148 34.8046875 136.68701172 C36.96266306 136.47381562 36.96266306 136.47381562 39.75 135.4375 C40.08 135.7675 40.41 136.0975 40.75 136.4375 C49.95599966 137.96554503 59.45241826 137.53559875 68.75 137.4375 C57.09614156 135.35750754 45.43024832 133.36371639 33.75 131.4375 C33.75 130.4475 33.75 129.4575 33.75 128.4375 C34.554375 128.31375 35.35875 128.19 36.1875 128.0625 C37.4559375 127.753125 37.4559375 127.753125 38.75 127.4375 C39.08 126.7775 39.41 126.1175 39.75 125.4375 C41.40973584 125.07121347 43.07804928 124.74322813 44.75 124.4375 C52.58494702 121.53182428 58.45711945 116.87576473 63.75 110.4375 C64.245 108.9525 64.245 108.9525 64.75 107.4375 C64.09 108.324375 63.43 109.21125 62.75 110.125 C55.02224696 119.27742259 44.19993086 121.12989701 32.8125 122.3125 C22.61669321 123.41744651 14.39952626 126.68167388 6.44140625 133.14453125 C4.36001049 134.73562131 2.2436225 135.65824297 -0.25 136.4375 C1.31854585 125.51649954 10.8554163 115.4458351 18.984375 108.5390625 C28.56233617 101.43594365 39.66957503 96.75084851 50.546875 92.02734375 C51.24593964 91.72350266 51.94500427 91.41966156 52.66525269 91.10661316 C56.20585976 89.57041558 59.75072387 88.04536095 63.30322266 86.53686523 C70.13162484 83.61472657 76.66139906 80.5600677 82.91650391 76.50830078 C84.75 75.4375 84.75 75.4375 86.75 75.4375 C86.75 74.7775 86.75 74.1175 86.75 73.4375 C82.29602268 75.2868447 78.11028256 77.30934551 73.875 79.625 C65.28980287 84.10344624 56.05082224 86.67126697 46.8359375 89.53125 C29.50626361 94.91293654 8.33209931 101.56435103 -2.25 117.4375 C-3.24 117.4375 -4.23 117.4375 -5.25 117.4375 C-5.84657251 105.93690773 -5.13430625 97.67672817 2.5 88.75 C5.11551447 85.97949208 7.83797534 83.4534381 10.75 81 C18.43781668 74.44496574 23.68322689 66.62684309 27.75 57.4375 C27.15574219 58.33210938 26.56148438 59.22671875 25.94921875 60.1484375 C12.61491831 79.77034624 12.61491831 79.77034624 1.75 83.4375 C0.26282309 79.57084004 1.40983753 77.23462698 2.75 73.4375 C5.46151949 58.75328531 5.99353762 39.88528505 -1.25 26.4375 C-1.04503906 27.02273437 -0.84007812 27.60796875 -0.62890625 28.2109375 C1.31043251 34.39083997 2.14367708 40.31518871 2.5 46.75 C2.54439209 47.51425293 2.58878418 48.27850586 2.63452148 49.06591797 C2.82558464 53.34218238 2.63520482 57.21936489 1.75 61.4375 C-12.00190123 59.86837281 -21.86975309 54.30528573 -31.25 44.4375 C-24.8925272 54.03603737 -16.70180905 59.40500887 -6.75390625 64.95703125 C-4.25 66.4375 -4.25 66.4375 -2.25 68.4375 C-2.10382472 77.20801654 -6.23003673 83.93074754 -10.25 91.4375 C-11.23601137 93.392396 -12.21613428 95.35028558 -13.1875 97.3125 C-13.875 98.6875 -14.5625 100.0625 -15.25 101.4375 C-19.2677773 99.86981587 -21.71182522 97.03196804 -24.5 93.875 C-24.98307617 93.33560791 -25.46615234 92.79621582 -25.96386719 92.24047852 C-26.94036701 91.14927717 -27.91468198 90.05611639 -28.88671875 88.9609375 C-30.07335175 87.63490062 -31.28464082 86.33100912 -32.5 85.03125 C-43.33187721 73.35313238 -49.49166594 61.55475918 -49.25 45.4375 C-47.96761778 32.96067529 -41.79575932 20.67941816 -32.51171875 12.1796875 C-22.69156885 4.61528879 -12.45717964 -0.16216599 0 0 Z M-6.25 16.4375 C-5.92 17.4275 -5.59 18.4175 -5.25 19.4375 C-5.25 18.4475 -5.25 17.4575 -5.25 16.4375 C-5.58 16.4375 -5.91 16.4375 -6.25 16.4375 Z M30.75 48.4375 C31.75 51.4375 31.75 51.4375 31.75 51.4375 Z M29.75 51.4375 C30.75 53.4375 30.75 53.4375 30.75 53.4375 Z " fill="#38B5FC" transform="translate(115.25,10.5625)"/>
<path d="M0 0 C1.81748357 1.81748357 1.21806499 4.80008599 1.3125 7.25 C1.81809495 15.22535265 3.42515497 23.02849991 7.12890625 30.1796875 C8 32 8 32 8 35 C2.2890625 34.0703125 2.2890625 34.0703125 -0.3125 33.4375 C-8.36666474 32.1263569 -16.05651823 33.49463628 -24 35 C-22.80503906 34.90460938 -21.61007813 34.80921875 -20.37890625 34.7109375 C-2.8231476 33.43019573 7.31763703 36.47260415 20.75634766 48.06958008 C31.70447198 57.89554395 41.08533746 70.05059427 41.95703125 85.19921875 C41.97121094 85.79347656 41.98539062 86.38773437 42 87 C38.28447723 85.67396537 35.49889355 84.01754723 32.375 81.625 C19.9820808 72.88453939 6.13197549 72.61391813 -8.5 71.5 C-13.78718145 71.09386176 -18.82353406 70.14186749 -24 69 C-19.05 70.65 -14.1 72.3 -9 74 C-10.16928739 77.50786217 -10.77808845 77.70754025 -13.875 79.4375 C-16.98240558 81.27521298 -19.1207896 82.82883246 -21 86 C-20.195625 85.236875 -19.39125 84.47375 -18.5625 83.6875 C-10.84163546 77.38182873 -1.62376163 77.05980814 8 78 C20.31125836 80.64774329 32.20423406 87.2582746 39.1875 97.875 C39.86167969 98.88304687 40.53585938 99.89109375 41.23046875 100.9296875 C46.48610661 110.04874127 46.17182594 120.85544899 43.9375 130.9375 C39.32594668 146.89561938 31.51891975 160.69771267 19.875 172.5625 C19.39651611 173.05137695 18.91803223 173.54025391 18.42504883 174.04394531 C14.9942124 177.39001921 10.0576492 182 5 182 C6.63090336 178.17329938 9.10656937 175.38190171 11.8125 172.25 C26.09268373 155.3259975 32.36869186 135.09746569 31.19042969 112.96728516 C30.80347643 108.96976036 29.62221321 105.64997973 28 102 C28.165 103.051875 28.33 104.10375 28.5 105.1875 C29.25711395 111.10578512 29.08169679 117.04521179 29 123 C24.63551084 124.22306222 20.92709051 123.74285648 16.5625 122.875 C15.85947754 122.73594238 15.15645508 122.59688477 14.43212891 122.45361328 C-7.83756676 117.79927194 -24.84661561 106.08851022 -37.765625 87.453125 C-47.60544007 71.84856979 -50.78698931 52.68433258 -46.9375 34.625 C-42.84641471 20.86753645 -33.81003679 10.06334092 -21.328125 3.15234375 C-14.39039923 -0.2815977 -7.62527172 -0.51717143 0 0 Z " fill="#5EDFE4" transform="translate(61,55)"/>
<path d="M0 0 C-0.33 1.32 -0.66 2.64 -1 4 C0.32 4 1.64 4 3 4 C3 5.98 3 7.96 3 10 C2.01 10.495 2.01 10.495 1 11 C0.67 11.99 0.34 12.98 0 14 C-0.66 14 -1.32 14 -2 14 C-1.67 12.02 -1.34 10.04 -1 8 C-10.58763634 23.76465106 -9.44668093 41.30399217 -8 59 C-9.76462683 55.91190305 -10 54.76687864 -10 51 C-10.66 51 -11.32 51 -12 51 C-12 44.07 -12 37.14 -12 30 C-13.32 29.34 -14.64 28.68 -16 28 C-16.66 29.98 -17.32 31.96 -18 34 C-18.33 34 -18.66 34 -19 34 C-18.26923048 20.74535281 -15.29846736 11.34635813 -6.44921875 1.2265625 C-4.3519573 -0.54847819 -2.65229563 -0.215051 0 0 Z " fill="#50B5EF" transform="translate(139,149)"/>
<path d="M0 0 C-0.43788836 6.96451011 -1.98017583 12.14401025 -5.0625 18.375 C-5.46082031 19.20064453 -5.85914062 20.02628906 -6.26953125 20.87695312 C-9.16139529 26.71101428 -12.4032442 31.87073479 -16.46875 36.96875 C-18.18319497 39.01865537 -18.18319497 39.01865537 -19 42 C-19.99 42 -20.98 42 -22 42 C-22.66 43.32 -23.32 44.64 -24 46 C-27.96 45.505 -27.96 45.505 -32 45 C-31.46213577 40.92355529 -29.33865963 38.91385715 -26.5625 36 C-23.83238865 33.12527601 -21.55471247 30.67014092 -20 27 C-19.34 27 -18.68 27 -18 27 C-17.74992187 26.46761719 -17.49984375 25.93523437 -17.2421875 25.38671875 C-15.69706972 22.41795472 -13.91542541 19.64002089 -12.125 16.8125 C-9.24716987 12.22818528 -6.76052819 7.65780115 -4.7890625 2.609375 C-3.64128248 0.26835832 -2.54465566 0 0 0 Z " fill="#36B58D" transform="translate(115,202)"/>
<path d="M0 0 C0.66 0.33 1.32 0.66 2 1 C2 1.99 2 2.98 2 4 C1.67 4.33 1.34 4.66 1 5 C3.475 5.495 3.475 5.495 6 6 C5.67 4.68 5.34 3.36 5 2 C5.66 2 6.32 2 7 2 C7.734375 3.65234375 7.734375 3.65234375 8 6 C2.19411915 16.28252056 -8.18847761 28.16931978 -19 33 C-19.66 33 -20.32 33 -21 33 C-19.36909664 29.17329938 -16.89343063 26.38190171 -14.1875 23.25 C-8.00347577 15.95718487 -3.6556802 8.8226472 0 0 Z " fill="#6ADADD" transform="translate(87,204)"/>
<path d="M0 0 C0.66 0.33 1.32 0.66 2 1 C1.01 3.31 0.02 5.62 -1 8 C0.5778125 7.9690625 0.5778125 7.9690625 2.1875 7.9375 C5.32704904 7.98896802 7.96883396 8.26517187 11 9 C11 9.66 11 10.32 11 11 C17.44070471 11.10655578 23.62641289 10.96205088 30 10 C30 10.99 30 11.98 30 13 C24.15046608 17.34536805 18.158144 17.1384584 11.1875 17.0625 C10.00510742 17.05573242 10.00510742 17.05573242 8.79882812 17.04882812 C6.86585239 17.03711312 4.93291607 17.01917998 3 17 C3 16.34 3 15.68 3 15 C-0.63 15 -4.26 15 -8 15 C-7.67 14.34 -7.34 13.68 -7 13 C-6.40316406 13.0721875 -5.80632812 13.144375 -5.19140625 13.21875 C3.54727161 14.1536457 12.22515832 14.09258332 21 14 C9.34614156 11.92000754 -2.31975168 9.92621639 -14 8 C-14 7.01 -14 6.02 -14 5 C-13.195625 4.87625 -12.39125 4.7525 -11.5625 4.625 C-10.716875 4.41875 -9.87125 4.2125 -9 4 C-8.67 3.34 -8.34 2.68 -8 2 C-6.34608154 1.60828247 -4.67654729 1.27942455 -3 1 C-2.01 0.67 -1.02 0.34 0 0 Z " fill="#4EB1EA" transform="translate(163,134)"/>
<path d="M0 0 C7.5018569 6.1779998 12.02981163 16.40944937 13 26 C13.29145342 32.073259 13.32536524 38.03585641 12 44 C13.6347133 38.98687921 14.36463389 34.29821158 14.75390625 29.0390625 C15 27 15 27 16 26 C21.66946971 25.5408904 26.69994154 25.76839644 32 28 C32 28.33 32 28.66 32 29 C26.72 28.67 21.44 28.34 16 28 C16.19529297 29.73636719 16.19529297 29.73636719 16.39453125 31.5078125 C16.53528723 33.0467446 16.67453035 34.5858156 16.8125 36.125 C16.90208984 36.88554688 16.99167969 37.64609375 17.08398438 38.4296875 C17.42246031 42.56265687 17.3443796 45.18961196 14.76171875 48.5546875 C12 51 12 51 8 51 C7.505 49.515 7.505 49.515 7 48 C7.29519531 47.41734375 7.59039062 46.8346875 7.89453125 46.234375 C11.24801825 39.45630234 10.53588812 29.29546856 9 22 C8.05719096 19.6429774 7.05352843 17.30965848 6 15 C4.94381237 12.01782317 3.96343454 9.01329528 3 6 C2.34 6 1.68 6 1 6 C0.67 4.02 0.34 2.04 0 0 Z " fill="#59BCF2" transform="translate(155,29)"/>
<path d="M0 0 C0.495 0.99 0.495 0.99 1 2 C-2.33586537 5.57414147 -5.10565298 7.33918127 -9.6875 8.9375 C-10.450625 9.288125 -11.21375 9.63875 -12 10 C-12.33 10.99 -12.66 11.98 -13 13 C-14.71994276 14.03845601 -16.44558813 15.07090761 -18.21875 16.015625 C-20.15256341 17.02910082 -20.15256341 17.02910082 -22.3125 18.75 C-24 20 -24 20 -26 20 C-26.103125 20.61875 -26.20625 21.2375 -26.3125 21.875 C-27 24 -27 24 -30 26 C-30.72382467 28.05925139 -30.72382467 28.05925139 -31 30 C-27.535 29.505 -27.535 29.505 -24 29 C-27.02843502 31.46060345 -30.09389512 33.87203778 -33.1875 36.25 C-34.19876953 37.03117187 -34.19876953 37.03117187 -35.23046875 37.828125 C-37 39 -37 39 -39 39 C-37.43090197 28.07515494 -27.84720452 17.8470248 -19.625 11.03125 C-13.49892551 6.55450326 -6.85479295 3.21539257 0 0 Z " fill="#4AB7F2" transform="translate(154,108)"/>
<path d="M0 0 C4.40704644 2.23434172 6.56246655 4.76163773 9.25 8.875 C10.27867188 10.41800781 10.27867188 10.41800781 11.328125 11.9921875 C12.88105229 14.78600529 13.60566666 16.85693128 14 20 C13.01 19.67 12.02 19.34 11 19 C10.67 18.01 10.34 17.02 10 16 C7.65245602 14.66096786 7.65245602 14.66096786 5 14 C4.01 14.33 3.02 14.66 2 15 C2.33 16.65 2.66 18.3 3 20 C3.33 20 3.66 20 4 20 C4.05392397 22.77109307 4.09363455 25.54113818 4.125 28.3125 C4.14175781 29.09818359 4.15851563 29.88386719 4.17578125 30.69335938 C4.18222656 31.45068359 4.18867187 32.20800781 4.1953125 32.98828125 C4.20578613 33.68477783 4.21625977 34.38127441 4.22705078 35.09887695 C4 37 4 37 2 40 C1.97421875 38.83984375 1.9484375 37.6796875 1.921875 36.484375 C1.63685639 27.85515911 1.11123139 20.50027062 -2.453125 12.48046875 C-3 10 -3 10 -1.62109375 7.3515625 C-1.08613281 6.57554687 -0.55117187 5.79953125 0 5 C0.25196129 2.29046449 0.25196129 2.29046449 0 0 Z " fill="#67D9DD" transform="translate(91,144)"/>
<path d="M0 0 C0.66 0 1.32 0 2 0 C2.483059 1.39449109 2.96125517 2.79066707 3.4375 4.1875 C3.83775391 5.35345703 3.83775391 5.35345703 4.24609375 6.54296875 C5.73043182 11.3805265 6.11995777 15.76958699 6.09765625 20.83203125 C6.09443359 22.12431641 6.09121094 23.41660156 6.08789062 24.74804688 C6.07953665 26.10286526 6.07107172 27.45768297 6.0625 28.8125 C6.05748 30.18684735 6.05291797 31.56119645 6.04882812 32.93554688 C6.03705668 36.29040924 6.02061283 39.64518221 6 43 C6.66 43 7.32 43 8 43 C8 43.99 8 44.98 8 46 C9.32 46 10.64 46 12 46 C12.33 45.01 12.66 44.02 13 43 C13.99 43.33 14.98 43.66 16 44 C14.44555348 45.46691458 12.88107825 46.92320641 11.3125 48.375 C10.00732422 49.59316406 10.00732422 49.59316406 8.67578125 50.8359375 C6.13628893 52.88977509 4.07974134 53.9900668 1 55 C-0.48717691 51.13334004 0.65983753 48.79712698 2 45 C4.71521584 30.25752525 3.83174729 14.4374764 0 0 Z " fill="#4ABCF7" transform="translate(116,39)"/>
<path d="M0 0 C0.99 0 1.98 0 3 0 C2.80664062 0.57105469 2.61328125 1.14210937 2.4140625 1.73046875 C-2.57744176 17.27332111 -2.31484664 31.91660805 -1 48 C-2.76462683 44.91190305 -3 43.76687864 -3 40 C-3.66 40 -4.32 40 -5 40 C-5 33.07 -5 26.14 -5 19 C-6.32 18.34 -7.64 17.68 -9 17 C-9.66 18.98 -10.32 20.96 -11 23 C-11.33 23 -11.66 23 -12 23 C-11.85764543 21.27054347 -11.71095618 19.54144346 -11.5625 17.8125 C-11.48128906 16.84957031 -11.40007812 15.88664063 -11.31640625 14.89453125 C-11.02333849 12.21350398 -10.57296246 9.6337014 -10 7 C-9.01 6.67 -8.02 6.34 -7 6 C-7 7.65 -7 9.3 -7 11 C-6.34 11.33 -5.68 11.66 -5 12 C-5 11.34 -5 10.68 -5 10 C-3.68 9.67 -2.36 9.34 -1 9 C-0.67 6.03 -0.34 3.06 0 0 Z " fill="#4EBAF2" transform="translate(132,160)"/>
<path d="M0 0 C2.05078125 0.03255208 4.1015625 0.06510417 6.15234375 0.09765625 C2.79277039 1.92343325 -0.62932985 3.05668609 -4.2734375 4.19921875 C-5.55126837 4.60575271 -6.82876307 5.01334451 -8.10595703 5.421875 C-9.10033783 5.73970947 -9.10033783 5.73970947 -10.11480713 6.06396484 C-36.71113351 14.54889381 -36.71113351 14.54889381 -56.84765625 33.09765625 C-57.83765625 33.09765625 -58.82765625 33.09765625 -59.84765625 33.09765625 C-59.84765625 28.80765625 -59.84765625 24.51765625 -59.84765625 20.09765625 C-59.51765625 20.09765625 -59.18765625 20.09765625 -58.84765625 20.09765625 C-58.51765625 23.06765625 -58.18765625 26.03765625 -57.84765625 29.09765625 C-57.51765625 28.10765625 -57.18765625 27.11765625 -56.84765625 26.09765625 C-56.24953125 25.95328125 -55.65140625 25.80890625 -55.03515625 25.66015625 C-52.04108835 24.89025308 -50.83849894 23.42030606 -48.84765625 21.09765625 C-48.53828125 20.39640625 -48.22890625 19.69515625 -47.91015625 18.97265625 C-46.38910372 16.28844591 -44.74525858 16.01962063 -41.84765625 15.09765625 C-40.85765625 14.76765625 -39.86765625 14.43765625 -38.84765625 14.09765625 C-37.85765625 13.76765625 -36.86765625 13.43765625 -35.84765625 13.09765625 C-34.1760243 12.4435394 -32.50750423 11.78112307 -30.84765625 11.09765625 C-30.84765625 10.43765625 -30.84765625 9.77765625 -30.84765625 9.09765625 C-29.71328125 8.97390625 -28.57890625 8.85015625 -27.41015625 8.72265625 C-26.23453125 8.51640625 -25.05890625 8.31015625 -23.84765625 8.09765625 C-23.51765625 7.43765625 -23.18765625 6.77765625 -22.84765625 6.09765625 C-20.85277391 5.73495037 -18.85166636 5.4059655 -16.84765625 5.09765625 C-16.08453125 4.78828125 -15.32140625 4.47890625 -14.53515625 4.16015625 C-11.32186512 2.88978534 -8.11958259 2.2398799 -4.73828125 1.5625 C-2.58858949 1.03396008 -2.20481917 0.11653378 0 0 Z " fill="#55B7EE" transform="translate(169.84765625,94.90234375)"/>
<path d="M0 0 C0.33 0 0.66 0 1 0 C0.96519531 1.670625 0.96519531 1.670625 0.9296875 3.375 C0.47534532 31.71000484 0.47534532 31.71000484 13 56 C13.804375 56.7425 14.60875 57.485 15.4375 58.25 C16.2109375 59.11625 16.2109375 59.11625 17 60 C16.59765625 62.109375 16.59765625 62.109375 16 64 C4.43860892 53.01667848 -1.57931468 37.11757124 -2.23828125 21.40625 C-2.40368854 13.86949741 -2.06449243 7.28741153 0 0 Z " fill="#7FDEE1" transform="translate(15,88)"/>
<path d="M0 0 C6.11997136 6.94651921 7.41665989 18.58916008 7 27.5 C5.61287867 40.56091469 2.13485244 53.34378036 -4 65 C-4.99 65.495 -4.99 65.495 -6 66 C-6.51030782 61.78996048 -5.28331315 59.5751603 -3.08984375 56.046875 C-1.07840749 52.26912375 -0.09410673 48.1194776 1 44 C1.66 44 2.32 44 3 44 C2.98839844 42.85402344 2.97679687 41.70804688 2.96484375 40.52734375 C2.95545758 38.99739748 2.94635827 37.46744942 2.9375 35.9375 C2.92912109 35.18533203 2.92074219 34.43316406 2.91210938 33.65820312 C2.89194649 29.00057658 3.29003681 24.61476075 4 20 C4.06056151 18.35514934 4.08781955 16.70827043 4.0625 15.0625 C4.05347656 14.29035156 4.04445312 13.51820312 4.03515625 12.72265625 C4.02355469 12.15417969 4.01195312 11.58570312 4 11 C3.34 11 2.68 11 2 11 C0.80712589 7.12315913 0 4.08378077 0 0 Z " fill="#5DB8EB" transform="translate(207,78)"/>
<path d="M0 0 C1.81748357 1.81748357 1.21806499 4.80008599 1.3125 7.25 C1.81809495 15.22535265 3.42515497 23.02849991 7.12890625 30.1796875 C8 32 8 32 8 35 C4.31733897 34.40049704 0.65456815 33.75241109 -3 33 C-3 32.67 -3 32.34 -3 32 C0.465 31.505 0.465 31.505 4 31 C2.09115308 26.45829004 2.09115308 26.45829004 0 22 C-0.08372659 20.47851674 -0.10730027 18.95344222 -0.09765625 17.4296875 C-0.09443359 16.53378906 -0.09121094 15.63789062 -0.08789062 14.71484375 C-0.07951172 13.77769531 -0.07113281 12.84054688 -0.0625 11.875 C-0.05798828 10.93011719 -0.05347656 9.98523438 -0.04882812 9.01171875 C-0.03702357 6.67441613 -0.02055759 4.33723939 0 2 C-0.97582031 2.144375 -1.95164062 2.28875 -2.95703125 2.4375 C-4.22933594 2.623125 -5.50164063 2.80875 -6.8125 3 C-8.70935547 3.2784375 -8.70935547 3.2784375 -10.64453125 3.5625 C-14 4 -14 4 -17 4 C-18.67099977 4.31088368 -20.33871537 4.64080332 -22 5 C-17.01055874 -1.45692398 -7.29474184 -0.49475378 0 0 Z " fill="#7CD4D6" transform="translate(61,55)"/>
<path d="M0 0 C-0.2822359 8.32595898 -3.27268023 14.62515018 -7 22 C-7.66 21.01 -8.32 20.02 -9 19 C-8.67 18.34 -8.34 17.68 -8 17 C-8.66 17 -9.32 17 -10 17 C-10.99 19.475 -10.99 19.475 -12 22 C-12.66 22 -13.32 22 -14 22 C-14 22.66 -14 23.32 -14 24 C-14.66 23.67 -15.32 23.34 -16 23 C-15.46890625 22.16597656 -14.9378125 21.33195312 -14.390625 20.47265625 C-10.73341589 14.66608027 -7.29591758 9.0287983 -4.7890625 2.609375 C-3.64128248 0.26835832 -2.54465566 0 0 0 Z " fill="#5AC19E" transform="translate(115,202)"/>
<path d="M0 0 C0.66 0.33 1.32 0.66 2 1 C1.23587913 2.12956998 0.46340197 3.25348978 -0.3125 4.375 C-0.74175781 5.00148438 -1.17101562 5.62796875 -1.61328125 6.2734375 C-3 8 -3 8 -6 10 C-7.21284876 13.05429073 -7.21284876 13.05429073 -8 16 C-6.68 16 -5.36 16 -4 16 C-4.875 20.75 -4.875 20.75 -6 23 C-5.01 23 -4.02 23 -3 23 C-3 23.66 -3 24.32 -3 25 C-3.804375 25.268125 -4.60875 25.53625 -5.4375 25.8125 C-6.283125 26.204375 -7.12875 26.59625 -8 27 C-8.33 27.99 -8.66 28.98 -9 30 C-9.66 29.67 -10.32 29.34 -11 29 C-12.78939988 22.76230325 -12.07712166 17.31462462 -9.45703125 11.47265625 C-6.89757787 7.12913349 -3.54263936 3.55983664 0 0 Z " fill="#39B4FD" transform="translate(122,95)"/>
<path d="M0 0 C0.99 0.86625 1.98 1.7325 3 2.625 C6.86190708 5.94197541 10.89447006 8.99283262 15 12 C12.29941861 15.46489688 8.58499581 16.44644911 4.5625 17.75 C3.89412109 17.98332031 3.22574219 18.21664062 2.53710938 18.45703125 C-1.31283471 19.73144287 -2.9526698 20.01183255 -7 19 C-3.37 17.35 0.26 15.7 4 14 C3.67 12.35 3.34 10.7 3 9 C3.66 9 4.32 9 5 9 C3.63016497 5.83884224 3.0109362 5.0072908 0 3 C0 2.01 0 1.02 0 0 Z " fill="#44B6F5" transform="translate(141,229)"/>
<path d="M0 0 C0.66 0.99 1.32 1.98 2 3 C0.94818041 7.30289834 -0.95114927 11.08855769 -3 15 C-3.99 15 -4.98 15 -6 15 C-6.66 16.32 -7.32 17.64 -8 19 C-9.98 18.01 -11.96 17.02 -14 16 C-13.34 15.01 -12.68 14.02 -12 13 C-11.34 13 -10.68 13 -10 13 C-9.74347656 12.42636719 -9.48695312 11.85273438 -9.22265625 11.26171875 C-7.88079097 8.77948234 -6.32152881 6.90892454 -4.4375 4.8125 C-3.81746094 4.11769531 -3.19742188 3.42289063 -2.55859375 2.70703125 C-1.72141231 1.79011824 -0.8779528 0.8779528 0 0 Z " fill="#2DA27A" transform="translate(99,229)"/>
<path d="M0 0 C-3.4063285 10.25601081 -13.12025855 17.51151659 -22 23 C-22.69738281 23.44472656 -23.39476562 23.88945312 -24.11328125 24.34765625 C-26 25.5 -26 25.5 -29 27 C-29.66 26.67 -30.32 26.34 -31 26 C-30.01 25.67 -29.02 25.34 -28 25 C-28 24.34 -28 23.68 -28 23 C-27.01 23 -26.02 23 -25 23 C-25 22.34 -25 21.68 -25 21 C-22 19 -22 19 -18 19 C-18 18.34 -18 17.68 -18 17 C-17.34 17 -16.68 17 -16 17 C-15.34 14.69 -14.68 12.38 -14 10 C-13.34 10 -12.68 10 -12 10 C-11.34 8.68 -10.68 7.36 -10 6 C-8.35 6 -6.7 6 -5 6 C-5.33 4.35 -5.66 2.7 -6 1 C-3 0 -3 0 0 0 Z " fill="#52B3ED" transform="translate(201,144)"/>
<path d="M0 0 C0.66 0 1.32 0 2 0 C2 0.66 2 1.32 2 2 C3.02738281 1.84402344 4.05476563 1.68804687 5.11328125 1.52734375 C17.07393359 -0.19517547 26.99692725 -0.84113739 38 5 C36.203125 6.0859375 36.203125 6.0859375 34 7 C30.75 5.625 30.75 5.625 28 4 C28 3.34 28 2.68 28 2 C27.07058594 2.2165625 26.14117187 2.433125 25.18359375 2.65625 C23.94738281 2.9346875 22.71117187 3.213125 21.4375 3.5 C19.61025391 3.91765625 19.61025391 3.91765625 17.74609375 4.34375 C10.92451069 5.53877185 5.55070826 4.8387953 -1 3 C-0.67 2.01 -0.34 1.02 0 0 Z " fill="#6CD8E0" transform="translate(32,89)"/>
<path d="M0 0 C4.64004906 4.64004906 4.39756135 12.87286847 4.6875 19.125 C4.73455078 19.89714844 4.78160156 20.66929688 4.83007812 21.46484375 C5.05562794 25.80575335 4.91016572 29.71606211 4 34 C-1.45479185 33.43179252 -5.91059256 32.05362055 -11 30 C-11 29.67 -11 29.34 -11 29 C-6.66831683 28.73747375 -3.1196377 29.70756464 1 31 C2.30155903 24.49220487 1.52700735 18.95865659 0.48046875 12.43359375 C-0.10938892 8.21826945 -0.1464484 4.24700371 0 0 Z " fill="#5CB6E9" transform="translate(113,38)"/>
<path d="M0 0 C0.99 0.66 1.98 1.32 3 2 C2.34 3.65 1.68 5.3 1 7 C0.01 7 -0.98 7 -2 7 C-2.33 9.97 -2.66 12.94 -3 16 C-4.32 16.33 -5.64 16.66 -7 17 C-7 17.66 -7 18.32 -7 19 C-7.99 18.67 -8.98 18.34 -10 18 C-9.34050666 11.4050666 -7.16887344 5.97170313 -2.25 1.5 C-1.5075 1.005 -0.765 0.51 0 0 Z " fill="#3BB5FB" transform="translate(134,153)"/>
<path d="M0 0 C1.25348607 2.95106435 1.01044806 3.97406463 -0.21484375 7.015625 C-0.78332031 8.08296875 -1.35179688 9.1503125 -1.9375 10.25 C-2.50339844 11.32765625 -3.06929687 12.4053125 -3.65234375 13.515625 C-4.09707031 14.33546875 -4.54179688 15.1553125 -5 16 C-5.66 16 -6.32 16 -7 16 C-7 16.66 -7 17.32 -7 18 C-7.99 18 -8.98 18 -10 18 C-10 18.99 -10 19.98 -10 21 C3.365 21.495 3.365 21.495 17 22 C17 22.33 17 22.66 17 23 C12.75001434 23.02902996 8.50005419 23.04680887 4.25 23.0625 C2.44015625 23.07506836 2.44015625 23.07506836 0.59375 23.08789062 C-1.14648438 23.09272461 -1.14648438 23.09272461 -2.921875 23.09765625 C-3.99018555 23.10289307 -5.05849609 23.10812988 -6.15917969 23.11352539 C-8.62389235 23.01503008 -10.65245467 22.71565464 -13 22 C-11.50354144 17.64888409 -9.16704499 14.13983562 -6.5 10.4375 C-2.89855851 5.43181409 -2.89855851 5.43181409 0 0 Z " fill="#5DB8E2" transform="translate(110,228)"/>
<path d="M0 0 C0.33 0 0.66 0 1 0 C1.25 2.3125 1.25 2.3125 1 5 C-0.29735507 6.04625409 -1.63266972 7.04701223 -3 8 C-3.79623822 10.09415804 -3.79623822 10.09415804 -4 12 C-0.535 11.505 -0.535 11.505 3 11 C-0.02843502 13.46060345 -3.09389512 15.87203778 -6.1875 18.25 C-6.86167969 18.77078125 -7.53585938 19.2915625 -8.23046875 19.828125 C-10 21 -10 21 -12 21 C-11.42887939 16.79655229 -10.00402094 14.03182636 -7.6875 10.5 C-7.09324219 9.5821875 -6.49898438 8.664375 -5.88671875 7.71875 C-4.02834844 5.04084993 -2.11057888 2.48409284 0 0 Z " fill="#53B6EF" transform="translate(127,126)"/>
<path d="M0 0 C0.33 0 0.66 0 1 0 C0.67 2.31 0.34 4.62 0 7 C-0.66 7 -1.32 7 -2 7 C-2.0825 8.051875 -2.165 9.10375 -2.25 10.1875 C-3.05652222 14.28732127 -4.07721678 16.07721678 -7 19 C-7.66 19 -8.32 19 -9 19 C-9.33 19.66 -9.66 20.32 -10 21 C-12.9375 22.6875 -12.9375 22.6875 -16 24 C-16.66 23.67 -17.32 23.34 -18 23 C-17.18208984 22.26910156 -17.18208984 22.26910156 -16.34765625 21.5234375 C-10.2967623 15.83456284 -6.03388963 9.77928769 -1.75 2.74609375 C-1.1725 1.83988281 -0.595 0.93367188 0 0 Z " fill="#56B6EB" transform="translate(142,71)"/>
<path d="M0 0 C1.65 0 3.3 0 5 0 C4.6875 2.375 4.6875 2.375 4 5 C1 7 1 7 -1 7 C-1.70125 7.886875 -2.4025 8.77375 -3.125 9.6875 C-6.93977753 14.4362791 -11.56995702 17.43588288 -17.5 18.8125 C-18.7375 18.9053125 -18.7375 18.9053125 -20 19 C-19.34 18.67 -18.68 18.34 -18 18 C-18 17.34 -18 16.68 -18 16 C-16.35 15.67 -14.7 15.34 -13 15 C-13 14.01 -13 13.02 -13 12 C-9.25 10 -9.25 10 -7 10 C-6.7525 9.401875 -6.505 8.80375 -6.25 8.1875 C-4.82997292 5.70245261 -3.27294041 4.68637514 -1 3 C-0.67 2.01 -0.34 1.02 0 0 Z " fill="#52B5ED" transform="translate(181,111)"/>
<path d="M0 0 C2.00596056 3.00894083 2.90959033 5.5283585 4.0625 8.9375 C8.64836498 21.06306651 17.8482251 30.98858974 27 40 C26.67 40.66 26.34 41.32 26 42 C13.90166906 30.63862323 0.80723656 17.43630973 0 0 Z " fill="#65BEE9" transform="translate(67,64)"/>
<path d="M0 0 C5.66522965 2.11684656 10.72187784 5.03775078 15.75 8.375 C15.09 9.035 14.43 9.695 13.75 10.375 C12.76 10.045 11.77 9.715 10.75 9.375 C10.75 8.385 10.75 7.395 10.75 6.375 C9.1 6.705 7.45 7.035 5.75 7.375 C5.37875 6.75625 5.0075 6.1375 4.625 5.5 C1.75186396 2.24377915 -1.43176665 1.56040125 -5.70654297 1.12451172 C-8.51266298 0.95595332 -11.31533207 0.84137131 -14.125 0.75 C-15.09953125 0.71132812 -16.0740625 0.67265625 -17.078125 0.6328125 C-19.4685672 0.53906967 -21.85901244 0.4533617 -24.25 0.375 C-16.93101269 -3.58254303 -7.72909117 -2.40282627 0 0 Z " fill="#77D2D6" transform="translate(75.25,134.625)"/>
<path d="M0 0 C0.66 0 1.32 0 2 0 C2.33 1.65 2.66 3.3 3 5 C3.99 5.33 4.98 5.66 6 6 C6.33 5.01 6.66 4.02 7 3 C7.33 4.65 7.66 6.3 8 8 C6.02 8.99 6.02 8.99 4 10 C4 9.34 4 8.68 4 8 C3.34773437 8.13277344 2.69546875 8.26554687 2.0234375 8.40234375 C-2.6408287 9.34482822 -7.29868454 10.25768703 -12 11 C-9.20803989 7.71534104 -5.76803183 5.98678042 -2 4 C-1.34 4 -0.68 4 0 4 C-0.33 3.01 -0.66 2.02 -1 1 C-0.67 0.67 -0.34 0.34 0 0 Z " fill="#47B4F0" transform="translate(202,82)"/>
<path d="M0 0 C0.66 0 1.32 0 2 0 C1.67 3.3 1.34 6.6 1 10 C1.66 10 2.32 10 3 10 C2.85962479 11.81293089 2.71255111 13.6253443 2.5625 15.4375 C2.48128906 16.44683594 2.40007812 17.45617187 2.31640625 18.49609375 C2 21 2 21 1 22 C0.76924918 23.34747084 0.58846937 24.70377565 0.4375 26.0625 C0.293125 27.361875 0.14875 28.66125 0 30 C-0.66 30 -1.32 30 -2 30 C-1.7525 28.2984375 -1.7525 28.2984375 -1.5 26.5625 C-0.86278668 21.02228416 -0.94512306 15.50863794 -1.03710938 9.94165039 C-1.07802691 6.47900403 -1.11113538 3.30736391 0 0 Z " fill="#59BBE8" transform="translate(119,184)"/>
<path d="M0 0 C0.33 0.66 0.66 1.32 1 2 C1.99 2 2.98 2 4 2 C2.5968277 5.33434242 1.03010195 7.05526479 -1.875 9.1875 C-2.55304688 9.69667969 -3.23109375 10.20585937 -3.9296875 10.73046875 C-5.98361986 11.98995557 -7.64588985 12.56190327 -10 13 C-8.48446596 9.52224821 -6.4226544 7.0442016 -3.875 4.25 C-3.15054688 3.45078125 -2.42609375 2.6515625 -1.6796875 1.828125 C-0.84824219 0.92320312 -0.84824219 0.92320312 0 0 Z " fill="#76DADC" transform="translate(76,224)"/>
<path d="M0 0 C0.33 0.66 0.66 1.32 1 2 C-1.45614035 7 -1.45614035 7 -3 9 C-3.99 9.33 -4.98 9.66 -6 10 C-6.70394612 11.31403276 -7.36345658 12.6520257 -8 14 C-9.3050581 15.68889872 -10.63360658 17.3603279 -12 19 C-10.68 19.66 -9.36 20.32 -8 21 C-11.13349732 22.04449911 -11.98968256 21.93423645 -15 21 C-14.46213577 16.92355529 -12.33865963 14.91385715 -9.5625 12 C-6.83238865 9.12527601 -4.55471247 6.67014092 -3 3 C-2.34 3 -1.68 3 -1 3 C-0.67 2.01 -0.34 1.02 0 0 Z " fill="#49A48A" transform="translate(98,226)"/>
<path d="M0 0 C0.66 0.33 1.32 0.66 2 1 C-5.41436199 5.89254922 -12.18966068 10.09076168 -21 12 C-20.34 10.02 -19.68 8.04 -19 6 C-18.21625 6.020625 -17.4325 6.04125 -16.625 6.0625 C-14.01885039 6.18684063 -14.01885039 6.18684063 -12 5 C-9.875 5.4375 -9.875 5.4375 -8 6 C-8 5.34 -8 4.68 -8 4 C-7.01 4 -6.02 4 -5 4 C-5 3.34 -5 2.68 -5 2 C-2.625 0.9375 -2.625 0.9375 0 0 Z " fill="#54B3EA" transform="translate(197,83)"/>
<path d="M0 0 C0.66 0 1.32 0 2 0 C1.67 1.98 1.34 3.96 1 6 C0.01 6 -0.98 6 -2 6 C-2.103125 6.70125 -2.20625 7.4025 -2.3125 8.125 C-3 11 -3 11 -4.4375 13.6875 C-6.16724416 17.35455761 -6.98552316 20.91631093 -7.6875 24.875 C-7.81705078 25.56335938 -7.94660156 26.25171875 -8.08007812 26.9609375 C-8.39474121 28.63914062 -8.69851465 30.31937953 -9 32 C-9.33 32 -9.66 32 -10 32 C-9.57552031 19.83865681 -6.24804437 10.37072939 0 0 Z " fill="#5EB6E7" transform="translate(76,30)"/>
<path d="M0 0 C2.10827055 3.16240582 2.33817465 4.50657469 2.625 8.1875 C2.69976562 9.08855469 2.77453125 9.98960937 2.8515625 10.91796875 C2.90054688 11.60503906 2.94953125 12.29210937 3 13 C-0.81762806 11.63167453 -3.84109053 9.87003864 -7.125 7.5 C-7.97320312 6.8915625 -8.82140625 6.283125 -9.6953125 5.65625 C-10.45585938 5.1096875 -11.21640625 4.563125 -12 4 C-12.99 3.34 -13.98 2.68 -15 2 C-12.875 1.6875 -12.875 1.6875 -10 2 C-7.96302383 3.62126675 -5.96185416 5.28859531 -4 7 C-1.78264561 7.85279338 -1.78264561 7.85279338 0 8 C0 5.36 0 2.72 0 0 Z " fill="#7AD6DC" transform="translate(100,129)"/>
<path d="M0 0 C3.20210703 2.62929609 4.25385985 5.6769596 5.6875 9.5 C6.34298828 11.21703125 6.34298828 11.21703125 7.01171875 12.96875 C8 16 8 16 8 19 C4.31733897 18.40049704 0.65456815 17.75241109 -3 17 C-3 16.67 -3 16.34 -3 16 C0.465 15.505 0.465 15.505 4 15 C2.09115308 10.45829004 2.09115308 10.45829004 0 6 C-0.039992 4.00039988 -0.04346799 1.99952758 0 0 Z " fill="#72DCE5" transform="translate(61,71)"/>
<path d="M0 0 C2.58148508 0.35606691 3.82045747 0.83328193 5.75 2.625 C7.44225761 5.84028947 7.12830932 8.40733917 7 12 C7.42854995 14.31036915 7.42854995 14.31036915 8 16 C5.2775526 14.98194194 4.18557612 14.32876756 2.734375 11.7578125 C2.40953125 10.88898437 2.0846875 10.02015625 1.75 9.125 C1.41484375 8.26132812 1.0796875 7.39765625 0.734375 6.5078125 C0 4 0 4 0 0 Z M4 6 C4.33 6.99 4.66 7.98 5 9 C5 8.01 5 7.02 5 6 C4.67 6 4.34 6 4 6 Z " fill="#51B8F1" transform="translate(105,21)"/>
<path d="M0 0 C-0.41153737 4.97093824 -0.79600832 9.44508386 -3 14 C-3.33 12.68 -3.66 11.36 -4 10 C-4.66 10 -5.32 10 -6 10 C-6 10.66 -6 11.32 -6 12 C-6.66 12 -7.32 12 -8 12 C-5.45454545 4.18181818 -5.45454545 4.18181818 -4 1 C-2 0 -2 0 0 0 Z " fill="#61CBAF" transform="translate(115,202)"/>
<path d="M0 0 C0.66 0 1.32 0 2 0 C5.29352999 7.94423639 5.35762975 15.03420082 5.1875 23.5625 C5.17396484 24.85736328 5.16042969 26.15222656 5.14648438 27.48632812 C5.1113737 30.65799214 5.06219347 33.8287709 5 37 C4.67 37 4.34 37 4 37 C3.97812622 36.1181604 3.97812622 36.1181604 3.95581055 35.21850586 C3.62346339 23.1753252 2.90281407 11.72079642 0 0 Z " fill="#66B8E7" transform="translate(116,39)"/>
<path d="M0 0 C1.6421044 4.91482994 0.10604364 9.05533432 -1 14 C3.95 14 8.9 14 14 14 C9.77746115 16.11126943 7.85998477 16.2171997 3.25 16.125 C2.07953125 16.10695312 0.9090625 16.08890625 -0.296875 16.0703125 C-1.18890625 16.04710937 -2.0809375 16.02390625 -3 16 C-2.57910004 10.39538469 -2.08386889 5.27913453 0 0 Z " fill="#58B4E2" transform="translate(136,163)"/>
<path d="M0 0 C0 0.66 0 1.32 0 2 C-0.928125 2.3403125 -0.928125 2.3403125 -1.875 2.6875 C-4.61410209 4.37929835 -5.05024472 5.99244161 -6 9 C-12.625 10 -12.625 10 -16 10 C-5.03333333 0 -5.03333333 0 0 0 Z " fill="#4DB4F0" transform="translate(97,15)"/>
<path d="M0 0 C2.0625 0.4375 2.0625 0.4375 4 1 C2.625 3.5 2.625 3.5 1 6 C0.34 6 -0.32 6 -1 6 C-0.67 7.32 -0.34 8.64 0 10 C-3.10551666 10 -4.35261084 9.4606285 -7 8 C-6.34 7.01 -5.68 6.02 -5 5 C-4.34 5 -3.68 5 -3 5 C-2.690625 4.360625 -2.38125 3.72125 -2.0625 3.0625 C-1 1 -1 1 0 0 Z " fill="#1B9A70" transform="translate(92,237)"/>
<path d="M0 0 C-0.99 0.495 -0.99 0.495 -2 1 C-2.33 1.99 -2.66 2.98 -3 4 C-3.70125 4 -4.4025 4 -5.125 4 C-9.10421975 5.38407644 -10.44412523 7.88068881 -12.765625 11.28515625 C-13.37664063 12.13400391 -13.37664063 12.13400391 -14 13 C-14.33 13 -14.66 13 -15 13 C-15.125 6.25 -15.125 6.25 -14 4 C-13.34 4.33 -12.68 4.66 -12 5 C-11.2575 4.38125 -10.515 3.7625 -9.75 3.125 C-3.98630137 -1.32876712 -3.98630137 -1.32876712 0 0 Z " fill="#74DEE2" transform="translate(51,136)"/>
<path d="M0 0 C0.66 0 1.32 0 2 0 C2 0.66 2 1.32 2 2 C2.99 2.33 3.98 2.66 5 3 C3.625 5.5 3.625 5.5 2 8 C1.34 8 0.68 8 0 8 C0 8.66 0 9.32 0 10 C-1.98 10.99 -1.98 10.99 -4 12 C-3.45660208 7.43545749 -2.20536179 4.0271824 0 0 Z " fill="#4BBEFE" transform="translate(161,78)"/>
<path d="M0 0 C3.63 0 7.26 0 11 0 C9.02 0.99 9.02 0.99 7 2 C6.6278958 3.32303717 6.29369827 4.65737935 6 6 C5.01 6.66 4.02 7.32 3 8 C3 7.01 3 6.02 3 5 C1.68 5 0.36 5 -1 5 C-0.67 3.35 -0.34 1.7 0 0 Z " fill="#3FBCFB" transform="translate(139,148)"/>
<path d="M0 0 C4.13638445 0.02967277 7.46025706 0.56550297 11.3125 2.1875 C11.3125 2.5175 11.3125 2.8475 11.3125 3.1875 C6.0325 2.8575 0.7525 2.5275 -4.6875 2.1875 C-4.64625 3.775625 -4.605 5.36375 -4.5625 7 C-4.46268447 10.8428979 -4.47836 11.87379 -6.6875 15.1875 C-6.54723717 12.87465544 -6.40014442 10.56222409 -6.25 8.25 C-6.16878906 6.96222656 -6.08757812 5.67445312 -6.00390625 4.34765625 C-5.52350027 -0.45047261 -4.45038034 0.03326144 0 0 Z " fill="#5EB2E0" transform="translate(175.6875,54.8125)"/>
<path d="M0 0 C6.0546875 -0.1953125 6.0546875 -0.1953125 8 0 C8.66 0.66 9.32 1.32 10 2 C2.41 2.99 -5.18 3.98 -13 5 C-12.67 4.01 -12.34 3.02 -12 2 C-8.04 2 -4.08 2 0 2 C0 1.34 0 0.68 0 0 Z " fill="#77D8DF" transform="translate(48,85)"/>
<path d="M0 0 C0.68359375 1.640625 0.68359375 1.640625 1 4 C-0.21484375 6.796875 -0.21484375 6.796875 -1.9375 9.75 C-2.50339844 10.73484375 -3.06929687 11.7196875 -3.65234375 12.734375 C-4.09707031 13.48203125 -4.54179687 14.2296875 -5 15 C-5.66 15 -6.32 15 -7 15 C-7.33 15.66 -7.66 16.32 -8 17 C-7.49159115 12.17369625 -6.13041456 9.1398908 -3.4375 5.125 C-2.79683594 4.15820312 -2.15617187 3.19140625 -1.49609375 2.1953125 C-1.00238281 1.47085938 -0.50867188 0.74640625 0 0 Z " fill="#8FDFE3" transform="translate(24,71)"/>
<path d="M0 0 C0.99 0 1.98 0 3 0 C2.80664062 0.57105469 2.61328125 1.14210937 2.4140625 1.73046875 C0.16455191 8.7351329 -1.02961522 15.716406 -2 23 C-2.33 23 -2.66 23 -3 23 C-3 18.38 -3 13.76 -3 9 C-2.34 9 -1.68 9 -1 9 C-0.67 6.03 -0.34 3.06 0 0 Z " fill="#5BB4E8" transform="translate(132,160)"/>
<path d="M0 0 C0.33 0 0.66 0 1 0 C0.67 2.31 0.34 4.62 0 7 C-0.66 7 -1.32 7 -2 7 C-2.061875 8.051875 -2.12375 9.10375 -2.1875 10.1875 C-3.13408616 14.6291735 -4.59156258 16.11593757 -8 19 C-8.33 18.01 -8.66 17.02 -9 16 C-8.34 16 -7.68 16 -7 16 C-7 15.01 -7 14.02 -7 13 C-6.01 13 -5.02 13 -4 13 C-3.896875 11.783125 -3.79375 10.56625 -3.6875 9.3125 C-3.23192808 5.5952972 -2.28205364 3.04273819 0 0 Z " fill="#48B6F3" transform="translate(142,71)"/>
<path d="M0 0 C7.12608999 0.29754029 12.6672508 1.71125344 19 5 C17.203125 6.0859375 17.203125 6.0859375 15 7 C11.75 5.625 11.75 5.625 9 4 C9 3.34 9 2.68 9 2 C6.03 2 3.06 2 0 2 C0 1.34 0 0.68 0 0 Z " fill="#77D8D9" transform="translate(51,89)"/>
<path d="M0 0 C0.25394531 0.51304687 0.50789062 1.02609375 0.76953125 1.5546875 C1.75113203 3.50542429 2.7530269 5.44594522 3.76171875 7.3828125 C4.40382863 8.63011424 5.04575123 9.87751242 5.6875 11.125 C6.02072266 11.75792969 6.35394531 12.39085937 6.69726562 13.04296875 C7.52580709 14.6656009 8.26995703 16.3307327 9 18 C8.67 18.66 8.34 19.32 8 20 C6 18.1875 6 18.1875 4 16 C4 15.01 4 14.02 4 13 C3.34 13 2.68 13 2 13 C2 11.02 2 9.04 2 7 C1.34 7 0.68 7 0 7 C0 4.69 0 2.38 0 0 Z " fill="#61B6EA" transform="translate(131,208)"/>
<path d="M0 0 C2.31 0 4.62 0 7 0 C4.02187403 1.98541731 1.50156031 2.98825276 -1.875 4.125 C-2.90367187 4.47820312 -3.93234375 4.83140625 -4.9921875 5.1953125 C-7.82719431 5.95376887 -10.08640824 6.16126892 -13 6 C-8.32733754 2.41762545 -5.97976363 1.88926364 0 2 C0 1.34 0 0.68 0 0 Z " fill="#52B0E7" transform="translate(163,171)"/>
<path d="M0 0 C0.33 0 0.66 0 1 0 C1.36706108 9.19012194 0.70968037 17.19353881 -2 26 C-4.12451044 22.55629896 -4.12451044 22.55629896 -3.57421875 20.09765625 C-3.28160156 19.42605469 -2.98898438 18.75445312 -2.6875 18.0625 C-0.46316894 12.17688065 -0.27951181 6.23600481 0 0 Z " fill="#80D6D8" transform="translate(105,166)"/>
<path d="M0 0 C1.65 0 3.3 0 5 0 C4.6875 2.375 4.6875 2.375 4 5 C0.2346001 7.5102666 -0.42530969 7 -5 7 C-4.0409375 6.1028125 -4.0409375 6.1028125 -3.0625 5.1875 C-0.79689611 3.09189663 -0.79689611 3.09189663 0 0 Z " fill="#4EBAFA" transform="translate(181,111)"/>
<path d="M0 0 C0 0.66 0 1.32 0 2 C-1.051875 2.433125 -2.10375 2.86625 -3.1875 3.3125 C-5.48479785 4.28195969 -7.34695692 5.23130461 -9.4375 6.625 C-12.96697632 8.51886534 -16.02012994 8.66272288 -20 9 C-16.61736896 6.1698087 -12.90881541 4.4967219 -8.875 2.8125 C-8.24207031 2.53986328 -7.60914063 2.26722656 -6.95703125 1.98632812 C-2.2675047 0 -2.2675047 0 0 0 Z " fill="#5AB3E9" transform="translate(176,99)"/>
<path d="M0 0 C0.66 0.33 1.32 0.66 2 1 C1.23587913 2.12956998 0.46340197 3.25348978 -0.3125 4.375 C-0.74175781 5.00148438 -1.17101562 5.62796875 -1.61328125 6.2734375 C-3 8 -3 8 -6 10 C-7.21418833 11.9466071 -7.21418833 11.9466071 -8.1875 14.125 C-8.53167969 14.84945312 -8.87585938 15.57390625 -9.23046875 16.3203125 C-9.48441406 16.87460938 -9.73835938 17.42890625 -10 18 C-10.33 17.34 -10.66 16.68 -11 16 C-8.36095 9.62229583 -4.72263427 4.9879508 0 0 Z " fill="#5BB7EB" transform="translate(122,95)"/>
<path d="M0 0 C7.85596233 1.0006644 14.1148315 3.08695413 21 7 C17.37673261 8.2077558 16.35853631 7.54311128 13 6 C13 5.34 13 4.68 13 4 C11.35 4.33 9.7 4.66 8 5 C7.67 4.01 7.34 3.02 7 2 C4.69 2 2.38 2 0 2 C0 1.34 0 0.68 0 0 Z " fill="#53AFE2" transform="translate(122,11)"/>
<path d="M0 0 C0.66 0 1.32 0 2 0 C2.125 2.875 2.125 2.875 2 6 C1.34 6.66 0.68 7.32 0 8 C-1.32 8 -2.64 8 -4 8 C-4 8.66 -4 9.32 -4 10 C-4.66 10 -5.32 10 -6 10 C-5.8125 7.125 -5.8125 7.125 -5 4 C-2.4375 2.625 -2.4375 2.625 0 2 C0 1.34 0 0.68 0 0 Z " fill="#63DDE5" transform="translate(88,211)"/>
<path d="M0 0 C5.75 0.75 5.75 0.75 8 3 C7.01 3.495 7.01 3.495 6 4 C9.96 5.32 13.92 6.64 18 8 C18 8.33 18 8.66 18 9 C13.21760448 9.19129582 9.3606647 9.08122634 5 7 C3.25 4.5 3.25 4.5 2 2 C1.34 1.34 0.68 0.68 0 0 Z " fill="#74D5D9" transform="translate(31,120)"/>
<path d="M0 0 C0.33 0.66 0.66 1.32 1 2 C1.59425781 1.855625 2.18851563 1.71125 2.80078125 1.5625 C9.28732452 0.10983712 15.36613186 -0.2270145 22 0 C22 0.33 22 0.66 22 1 C20.44152344 1.16435547 20.44152344 1.16435547 18.8515625 1.33203125 C10.96211267 2.21221219 3.513116 3.29094375 -4 6 C-3.67 5.34 -3.34 4.68 -3 4 C-2.34 4 -1.68 4 -1 4 C-0.67 2.68 -0.34 1.36 0 0 Z " fill="#57AEE3" transform="translate(134,131)"/>
<path d="M0 0 C1 3 1 3 0.28735352 4.80932617 C-0.09493408 5.46392822 -0.47722168 6.11853027 -0.87109375 6.79296875 C-1.48500977 7.8612793 -1.48500977 7.8612793 -2.11132812 8.95117188 C-2.54896484 9.68916016 -2.98660156 10.42714844 -3.4375 11.1875 C-3.87126953 11.93708984 -4.30503906 12.68667969 -4.75195312 13.45898438 C-5.82557231 15.31127243 -6.91162681 17.1563425 -8 19 C-8.33 19 -8.66 19 -9 19 C-9 17.02 -9 15.04 -9 13 C-8.34 13 -7.68 13 -7 13 C-5.35 9.37 -3.7 5.74 -2 2 C-1.34 2 -0.68 2 0 2 C0 1.34 0 0.68 0 0 Z " fill="#5EB7EB" transform="translate(110,88)"/>
<path d="M0 0 C0.33 0.66 0.66 1.32 1 2 C-2.23507998 6.4114727 -5.84557192 6.84694558 -10.953125 7.703125 C-11.62859375 7.80109375 -12.3040625 7.8990625 -13 8 C-10.59310197 5.27324841 -8.07528977 3.88033404 -4.8125 2.3125 C-3.91144531 1.87550781 -3.01039063 1.43851562 -2.08203125 0.98828125 C-1.39496094 0.66214844 -0.70789063 0.33601563 0 0 Z " fill="#54B5EB" transform="translate(154,108)"/>
<path d="M0 0 C0.66 0.33 1.32 0.66 2 1 C0.92618483 2.77662117 -0.159458 4.54609689 -1.25 6.3125 C-1.85328125 7.29863281 -2.4565625 8.28476563 -3.078125 9.30078125 C-4.87840898 11.82922888 -6.41840585 13.326533 -9 15 C-8.42415568 12.61435923 -7.77772405 10.33317216 -7 8 C-4.9375 7.3125 -4.9375 7.3125 -3 7 C-3.33 6.01 -3.66 5.02 -4 4 C-2.68 3.34 -1.36 2.68 0 2 C0 1.34 0 0.68 0 0 Z " fill="#59B7EE" transform="translate(142,65)"/>
<path d="M0 0 C6.27235634 2.75103348 10.4289126 5.91466527 15 11 C10.9666466 11 9.16482462 9.39120082 6 7 C6 6.34 6 5.68 6 5 C4.02 4.34 2.04 3.68 0 3 C0 2.01 0 1.02 0 0 Z " fill="#59B6EC" transform="translate(187,58)"/>
<path d="M0 0 C2.55270089 2.55270089 2.91363069 4.46726975 3.11352539 8.01464844 C3.10567017 9.05153809 3.10567017 9.05153809 3.09765625 10.109375 C3.09443359 10.86347656 3.09121094 11.61757813 3.08789062 12.39453125 C3.07951172 13.17183594 3.07113281 13.94914062 3.0625 14.75 C3.05798828 15.54277344 3.05347656 16.33554687 3.04882812 17.15234375 C3.03708565 19.10159508 3.01915146 21.05080738 3 23 C2.67 23 2.34 23 2 23 C0.76892281 15.27279225 -0.2700558 7.8316181 0 0 Z " fill="#56BAF3" transform="translate(113,38)"/>
<path d="M0 0 C4.09958133 6.14937199 5.48755971 13.6866043 5 21 C4.67 21 4.34 21 4 21 C3.67 17.37 3.34 13.74 3 10 C2.01 9.67 1.02 9.34 0 9 C0 6.03 0 3.06 0 0 Z " fill="#64B8EA" transform="translate(163,41)"/>
<path d="M0 0 C0.33 0 0.66 0 1 0 C1.33 2.97 1.66 5.94 2 9 C2.33 8.01 2.66 7.02 3 6 C4.32 6.66 5.64 7.32 7 8 C5.1875 10.5 5.1875 10.5 3 13 C2.01 13 1.02 13 0 13 C0 8.71 0 4.42 0 0 Z " fill="#61B9E9" transform="translate(110,115)"/>
<path d="M0 0 C0.33 0 0.66 0 1 0 C1.28571429 8.57142857 1.28571429 8.57142857 -1 12 C-1.66 12 -2.32 12 -3 12 C-3 12.66 -3 13.32 -3 14 C-3.66 14 -4.32 14 -5 14 C-3.45730076 9.27934033 -1.92205381 4.58335908 0 0 Z " fill="#59BEEB" transform="translate(116,214)"/>
<path d="M0 0 C0.2475 0.61875 0.495 1.2375 0.75 1.875 C2.20628639 4.35068687 3.37812506 4.95125002 6 6 C1.25 10 1.25 10 -1 10 C-2.46726798 6.18510326 -1.43336419 3.70988378 0 0 Z " fill="#61B3E4" transform="translate(118,84)"/>
<path d="M0 0 C4.67248931 2.82522609 7.65996398 5.67760044 11 10 C9.35 10 7.7 10 6 10 C6 8.68 6 7.36 6 6 C5.071875 5.9071875 5.071875 5.9071875 4.125 5.8125 C2 5 2 5 0.75 2.4375 C0.5025 1.633125 0.255 0.82875 0 0 Z M4 10 C6 11 6 11 6 11 Z " fill="#57B4EB" transform="translate(144,19)"/>
<path d="M0 0 C3.465 1.98 3.465 1.98 7 4 C7 4.99 7 5.98 7 7 C4.69 7.66 2.38 8.32 0 9 C0.99 7.68 1.98 6.36 3 5 C2.2575 4.319375 2.2575 4.319375 1.5 3.625 C0 2 0 2 0 0 Z " fill="#5FB9E6" transform="translate(148,236)"/>
<path d="M0 0 C1.32 0.33 2.64 0.66 4 1 C4.13277344 1.60328125 4.26554687 2.2065625 4.40234375 2.828125 C4.57894531 3.62734375 4.75554687 4.4265625 4.9375 5.25 C5.19853516 6.43335938 5.19853516 6.43335938 5.46484375 7.640625 C5.947556 9.76878703 6.46163178 11.88532842 7 14 C6.67 13.34 6.34 12.68 6 12 C5.34 12 4.68 12 4 12 C2.68 8.04 1.36 4.08 0 0 Z " fill="#76DBE1" transform="translate(88,154)"/>
<path d="M0 0 C1.98 0 3.96 0 6 0 C6 0.66 6 1.32 6 2 C6.66 2 7.32 2 8 2 C8 2.66 8 3.32 8 4 C8.99 4 9.98 4 11 4 C11 4.66 11 5.32 11 6 C11.66 6.33 12.32 6.66 13 7 C7.92990529 6.52467862 4.02506742 3.95637706 0 1 C0 0.67 0 0.34 0 0 Z " fill="#7ADCE0" transform="translate(47,165)"/>
<path d="M0 0 C4.51478398 0.53115106 7.34666857 2.36620292 11 5 C10.34 5.66 9.68 6.32 9 7 C8.01 6.67 7.02 6.34 6 6 C6 5.01 6 4.02 6 3 C4.35 3.33 2.7 3.66 1 4 C0.67 2.68 0.34 1.36 0 0 Z " fill="#73DAE0" transform="translate(80,138)"/>
<path d="M0 0 C0.33 0.99 0.66 1.98 1 3 C0.3503125 3.5259375 0.3503125 3.5259375 -0.3125 4.0625 C-2.25694556 6.09113855 -2.25694556 6.09113855 -3.5 9.5625 C-5 13 -5 13 -8 15 C-6.67744617 10.37106161 -4.78449719 6.91569917 -2 3 C-1.34 2.01 -0.68 1.02 0 0 Z " fill="#64B5EE" transform="translate(131,152)"/>
<path d="M0 0 C2.90802461 2.21928194 4.95312762 3.92969143 7 7 C6.625 9.1875 6.625 9.1875 6 11 C4.98805294 9.92781799 3.99081943 8.84173622 3 7.75 C2.443125 7.14671875 1.88625 6.5434375 1.3125 5.921875 C0 4 0 4 0 0 Z " fill="#77DDDE" transform="translate(25,141)"/>
<path d="M0 0 C0.33 0.99 0.66 1.98 1 3 C2.32 2.67 3.64 2.34 5 2 C1.55384615 6.8 1.55384615 6.8 -1.25 7.8125 C-2.11625 7.9053125 -2.11625 7.9053125 -3 8 C-2.45276317 4.62537285 -1.9451 2.91765 0 0 Z " fill="#67BEE9" transform="translate(118,139)"/>
<path d="M0 0 C2.475 0.99 2.475 0.99 5 2 C5 3.32 5 4.64 5 6 C2.69 5.67 0.38 5.34 -2 5 C-1.34 3.35 -0.68 1.7 0 0 Z " fill="#42B3F2" transform="translate(154,136)"/>
<path d="M0 0 C0.33 0 0.66 0 1 0 C1.05429959 1.74965358 1.09292823 3.49979787 1.125 5.25 C1.14820312 6.22453125 1.17140625 7.1990625 1.1953125 8.203125 C0.99862781 11.0196498 0.44568916 12.60949036 -1 15 C-1.33 15 -1.66 15 -2 15 C-1.85816304 13.24967156 -1.71136571 11.49974466 -1.5625 9.75 C-1.48128906 8.77546875 -1.40007812 7.8009375 -1.31640625 6.796875 C-1.04925416 4.43538247 -0.64628032 2.28098935 0 0 Z " fill="#61BAEF" transform="translate(122,168)"/>
<path d="M0 0 C3.8665284 3.222107 4.88059018 6.14922412 6 11 C3 10 3 10 1.3125 7.1875 C0 4 0 4 0 0 Z " fill="#75D4D8" transform="translate(99,153)"/>
<path d="M0 0 C2 3 2 3 1.625 5.1875 C1.41875 5.785625 1.2125 6.38375 1 7 C-0.65 6.67 -2.3 6.34 -4 6 C-2.84826645 3.53199953 -1.95216435 1.95216435 0 0 Z " fill="#1EAC78" transform="translate(99,229)"/>
<path d="M0 0 C-0.33 2.31 -0.66 4.62 -1 7 C-2.32 6.67 -3.64 6.34 -5 6 C-4.625 3.5625 -4.625 3.5625 -4 1 C-2 0 -2 0 0 0 Z " fill="#77C8BD" transform="translate(115,202)"/>
<path d="M0 0 C1.125 3.75 1.125 3.75 0 6 C-2.64860427 6.59355614 -5.29197322 6.74209269 -8 7 C-7.236875 6.401875 -6.47375 5.80375 -5.6875 5.1875 C-3.6516425 3.53040668 -1.8021721 1.89702326 0 0 Z " fill="#53AFE5" transform="translate(173,127)"/>
<path d="M0 0 C0.66 0 1.32 0 2 0 C1.52389341 4.99911924 -0.03162219 7.97832683 -3 12 C-4 10 -4 10 -3.22265625 7.6171875 C-2.83980469 6.71226563 -2.45695313 5.80734375 -2.0625 4.875 C-1.68222656 3.96492188 -1.30195313 3.05484375 -0.91015625 2.1171875 C-0.60980469 1.41851562 -0.30945313 0.71984375 0 0 Z " fill="#5AB8F1" transform="translate(147,59)"/>
<path d="M0 0 C-3.83704776 2.55803184 -7.75712791 4.34505724 -12.4375 3.625 C-12.953125 3.41875 -13.46875 3.2125 -14 3 C-9.03006806 0.56574762 -5.65394631 -0.34615998 0 0 Z " fill="#5FB6EA" transform="translate(148,245)"/>
<path d="M0 0 C0.33 0.66 0.66 1.32 1 2 C1.99 2.33 2.98 2.66 4 3 C-1.75 7 -1.75 7 -4 7 C-2.79618552 4.50638429 -1.54571278 2.31856917 0 0 Z " fill="#88D2D8" transform="translate(70,230)"/>
<path d="M0 0 C0.66 0.33 1.32 0.66 2 1 C2 1.66 2 2.32 2 3 C4.31 3.33 6.62 3.66 9 4 C9 4.33 9 4.66 9 5 C4.07872966 5.16682272 0.49656104 5.24828052 -4 3 C-3 1 -3 1 0 0 Z " fill="#5FACD5" transform="translate(152,138)"/>
<path d="M0 0 C2 2 2 2 2 5 C-1.68266103 4.40049704 -5.34543185 3.75241109 -9 3 C-9 2.67 -9 2.34 -9 2 C-6.03 2 -3.06 2 0 2 C0 1.34 0 0.68 0 0 Z " fill="#78D1D6" transform="translate(67,85)"/>
<path d="M0 0 C0.33 1.32 0.66 2.64 1 4 C-0.1875 5.8125 -0.1875 5.8125 -2 7 C-3.32 6.67 -4.64 6.34 -6 6 C-4.02 4.02 -2.04 2.04 0 0 Z " fill="#77D9E1" transform="translate(31,64)"/>
<path d="M0 0 C0.33 0 0.66 0 1 0 C1 4.62 1 9.24 1 14 C-2 10 -2 10 -1.85546875 7.421875 C-1.63503906 6.54015625 -1.41460937 5.6584375 -1.1875 4.75 C-0.97480469 3.85796875 -0.76210937 2.9659375 -0.54296875 2.046875 C-0.36378906 1.37140625 -0.18460937 0.6959375 0 0 Z " fill="#49BBFA" transform="translate(68,53)"/>
<path d="M0 0 C0 0.66 0 1.32 0 2 C-3.07115285 4.95303159 -5.8333396 5.52651586 -10 6 C-4.4 0 -4.4 0 0 0 Z " fill="#54AEE6" transform="translate(97,15)"/>
<path d="M0 0 C0.66 0 1.32 0 2 0 C2.125 2.875 2.125 2.875 2 6 C1.34 6.66 0.68 7.32 0 8 C-0.33 6.68 -0.66 5.36 -1 4 C-1.99 4.495 -1.99 4.495 -3 5 C-3 4.01 -3 3.02 -3 2 C-2.01 2 -1.02 2 0 2 C0 1.34 0 0.68 0 0 Z " fill="#53CAA6" transform="translate(109,212)"/>
<path d="M0 0 C3.3 0 6.6 0 10 0 C6.71299843 1.64350079 4.52069985 2.41321669 1 3 C0.67 2.01 0.34 1.02 0 0 Z " fill="#4BB4F0" transform="translate(140,148)"/>
<path d="M0 0 C-0.33 0.99 -0.66 1.98 -1 3 C-4.5625 4.6875 -4.5625 4.6875 -8 6 C-7.67 5.01 -7.34 4.02 -7 3 C-6.34 3 -5.68 3 -5 3 C-5 2.34 -5 1.68 -5 1 C-3 0 -3 0 0 0 Z " fill="#78D0D5" transform="translate(52,129)"/>
<path d="M0 0 C0.75 1.5625 0.75 1.5625 1 4 C-0.13084437 6.50286409 -1.52139516 8.67007722 -3 11 C-4.3968009 6.80959731 -2.86445675 4.87233324 -1 1 C-0.67 0.67 -0.34 0.34 0 0 Z " fill="#7BE0E2" transform="translate(24,71)"/>
<path d="M0 0 C0.8125 1.6875 0.8125 1.6875 1 4 C-1.4375 6.75 -1.4375 6.75 -4 9 C-4 5.00095031 -2.27413033 3.19799578 0 0 Z " fill="#75D5DB" transform="translate(82,215)"/>
<path d="M0 0 C1.37432457 3.81756824 0.67975039 7.07255329 0 11 C0.66 11.33 1.32 11.66 2 12 C1.01 12 0.02 12 -1 12 C-1.22162329 10.37675914 -1.42689803 8.751279 -1.625 7.125 C-1.74101563 6.22007813 -1.85703125 5.31515625 -1.9765625 4.3828125 C-1.98429687 3.59648438 -1.99203125 2.81015625 -2 2 C-1.34 1.34 -0.68 0.68 0 0 Z " fill="#4BBBFB" transform="translate(112,112)"/>
<path d="M0 0 C0.99 0.33 1.98 0.66 3 1 C-0.465 3.97 -0.465 3.97 -4 7 C-4.33 5.68 -4.66 4.36 -5 3 C-3.68 3 -2.36 3 -1 3 C-0.67 2.01 -0.34 1.02 0 0 Z " fill="#58B0E9" transform="translate(129,82)"/>
<path d="M0 0 C0.66 0 1.32 0 2 0 C2.12375 0.61875 2.2475 1.2375 2.375 1.875 C2.87197356 4.19120832 2.87197356 4.19120832 5 6 C4.01 7.485 4.01 7.485 3 9 C0.70620251 5.55930376 0 4.27709699 0 0 Z " fill="#57B8FC" transform="translate(105,21)"/>
<path d="M0 0 C0.33 0 0.66 0 1 0 C1.125 3.375 1.125 3.375 1 7 C0.34 7.66 -0.32 8.32 -1 9 C-1.625 5.625 -1.625 5.625 -2 2 C-1.34 1.34 -0.68 0.68 0 0 Z " fill="#40C59C" transform="translate(108,215)"/>
<path d="M0 0 C0.33 0 0.66 0 1 0 C1.05422947 1.4370809 1.09289723 2.87475462 1.125 4.3125 C1.14820312 5.11300781 1.17140625 5.91351563 1.1953125 6.73828125 C1 9 1 9 -1 12 C-2.36884358 7.48281619 -1.47075246 4.41225737 0 0 Z " fill="#76DBDB" transform="translate(103,180)"/>
<path d="M0 0 C2.31 0.33 4.62 0.66 7 1 C6.67 2.32 6.34 3.64 6 5 C2.83884224 3.63016497 2.0072908 3.0109362 0 0 Z " fill="#64B1E5" transform="translate(94,107)"/>
<path d="M0 0 C0.33 0 0.66 0 1 0 C1.33 2.31 1.66 4.62 2 7 C0.68 7.99 -0.64 8.98 -2 10 C-1.34 6.7 -0.68 3.4 0 0 Z " fill="#4CBBFC" transform="translate(170,67)"/>
<path d="M0 0 C0.66 0 1.32 0 2 0 C4 5.625 4 5.625 4 9 C3.34 9 2.68 9 2 9 C1.34 6.03 0.68 3.06 0 0 Z " fill="#5FBFF3" transform="translate(116,39)"/>
<path d="M0 0 C1.65 0.33 3.3 0.66 5 1 C5.33 1.99 5.66 2.98 6 4 C2.89448334 4 1.64738916 3.4606285 -1 2 C-0.67 1.34 -0.34 0.68 0 0 Z " fill="#1C9E60" transform="translate(86,243)"/>
<path d="M0 0 C0.66 0.33 1.32 0.66 2 1 C1.67 1.99 1.34 2.98 1 4 C0.01 4 -0.98 4 -2 4 C-2 4.66 -2 5.32 -2 6 C-2.99 5.67 -3.98 5.34 -5 5 C-3.35 3.35 -1.7 1.7 0 0 Z " fill="#3B9B76" transform="translate(95,240)"/>
<path d="M0 0 C2.79872437 2.52788007 4.45773019 4.20411134 5 8 C4.01 8.495 4.01 8.495 3 9 C2.01 6.03 1.02 3.06 0 0 Z " fill="#5DB2EA" transform="translate(202,70)"/>
<path d="M0 0 C1.9375 0.375 1.9375 0.375 4 1 C4.33 1.66 4.66 2.32 5 3 C4.01 3 3.02 3 2 3 C1.67 3.99 1.34 4.98 1 6 C1 5.01 1 4.02 1 3 C0.34 3 -0.32 3 -1 3 C-0.67 2.01 -0.34 1.02 0 0 Z " fill="#44B9FE" transform="translate(103,18)"/>
</svg>
